<?xml version="1.0" standalone="no"?>
<!DOCTYPE svg PUBLIC "-//W3C//DTD SVG 20010904//EN"
 "http://www.w3.org/TR/2001/REC-SVG-20010904/DTD/svg10.dtd">
<svg version="1.0" xmlns="http://www.w3.org/2000/svg"
 width="481.000000pt" height="481.000000pt" viewBox="0 0 481.000000 481.000000"
 preserveAspectRatio="xMidYMid meet">
<metadata>
Created by potrace 1.11, written by Peter Selinger 2001-2013
</metadata>
<g transform="translate(0.000000,481.000000) scale(0.100000,-0.100000)"
fill="#000000" stroke="none">
<path d="M1860 4320 l0 -40 -90 0 -90 0 0 -40 0 -40 -60 0 -60 0 0 -40 c0 -38
-2 -40 -30 -40 -29 0 -30 -2 -30 -44 0 -38 -3 -45 -24 -50 -22 -5 -25 -13 -32
-76 -6 -69 -7 -70 -35 -70 l-29 0 0 -120 0 -120 -30 0 -30 0 0 -120 0 -120 30
0 30 0 0 -160 0 -160 -30 0 c-28 0 -30 -2 -30 -40 0 -38 2 -40 30 -40 28 0 30
-2 30 -40 0 -34 -4 -41 -24 -46 -22 -5 -25 -12 -31 -80 -7 -73 -8 -74 -36 -74
-27 0 -29 3 -29 40 0 38 -2 40 -30 40 -28 0 -30 -2 -30 -40 l0 -40 -149 0
c-146 0 -150 1 -157 23 -5 12 -8 26 -9 32 0 5 -8 11 -17 13 -12 2 -17 -5 -20
-30 -3 -29 -7 -33 -35 -36 -32 -3 -33 -2 -33 37 0 39 -2 41 -30 41 -28 0 -30
-2 -30 -40 l0 -40 -60 0 -60 0 0 -40 0 -40 -60 0 -60 0 0 -40 c0 -38 -2 -40
-30 -40 -28 0 -30 -2 -30 -40 l0 -40 -60 0 -60 0 0 -40 0 -40 -150 0 -150 0 0
-1220 0 -1220 1290 0 c1283 0 1290 0 1290 20 0 16 7 20 30 20 23 0 30 -4 30
-20 0 -20 7 -20 1080 -20 l1080 0 0 540 0 540 -30 0 c-28 0 -30 -2 -30 -40 0
-38 -2 -40 -30 -40 -28 0 -30 -2 -30 -40 0 -38 -2 -40 -30 -40 -28 0 -30 -2
-30 -40 0 -38 -2 -40 -30 -40 -28 0 -30 -2 -30 -40 0 -38 -2 -40 -30 -40 -28
0 -30 -2 -30 -40 0 -38 -2 -40 -30 -40 -28 0 -30 -2 -30 -40 0 -38 -2 -40 -30
-40 -28 0 -30 -2 -30 -40 0 -38 -2 -40 -30 -40 -28 0 -30 -2 -30 -40 0 -38 -2
-40 -30 -40 -28 0 -30 -2 -30 -40 l0 -40 -150 0 -150 0 0 -80 0 -80 60 0 60 0
0 -40 0 -40 -180 0 -180 0 0 80 0 80 30 0 30 0 0 80 0 80 -30 0 -30 0 0 -80 0
-80 -30 0 c-28 0 -30 2 -30 40 0 38 -2 40 -30 40 -28 0 -30 2 -30 40 l0 40
-90 0 -90 0 0 40 0 40 -60 0 -60 0 0 40 0 40 -150 0 -150 0 0 40 c0 38 2 40
30 40 28 0 30 2 30 40 l0 40 90 0 90 0 0 40 c0 38 2 40 30 40 28 0 30 2 30 40
l0 40 60 0 60 0 0 40 c0 38 2 40 30 40 28 0 30 2 30 40 0 38 2 40 30 40 28 0
30 2 30 40 0 38 2 40 30 40 28 0 30 -2 30 -40 0 -38 2 -40 30 -40 28 0 30 2
30 40 0 38 -2 40 -30 40 -28 0 -30 2 -30 40 0 38 2 40 30 40 l30 0 0 80 0 80
30 0 30 0 0 -80 0 -80 30 0 30 0 0 -120 0 -120 30 0 30 0 0 -80 0 -80 -60 0
-60 0 0 -40 0 -40 180 0 180 0 0 -40 c0 -38 2 -40 30 -40 28 0 30 2 30 40 0
38 2 40 30 40 28 0 30 -2 30 -40 l0 -40 60 0 60 0 0 40 c0 38 2 40 30 40 28 0
30 2 30 40 0 38 -2 40 -30 40 -28 0 -30 2 -30 40 l0 40 60 0 60 0 0 40 c0 38
2 40 30 40 l30 0 0 80 0 80 30 0 c28 0 30 2 30 40 0 38 2 40 30 40 l30 0 0 80
0 80 30 0 30 0 0 80 0 80 30 0 30 0 0 80 0 80 30 0 30 0 0 280 0 280 -30 0
c-28 0 -30 -2 -30 -40 0 -38 -2 -40 -30 -40 -28 0 -30 2 -30 40 0 38 -2 40
-30 40 -28 0 -30 -2 -30 -40 0 -38 -2 -40 -30 -40 l-30 0 0 -80 0 -80 -60 0
-60 0 0 40 c0 38 2 40 30 40 l30 0 0 120 0 120 60 0 60 0 0 120 0 120 30 0 30
0 0 80 0 80 30 0 c28 0 30 2 30 40 0 38 2 40 30 40 28 0 30 2 30 40 0 38 -2
40 -30 40 -28 0 -30 2 -30 40 0 38 2 40 30 40 l30 0 0 201 0 202 -45 -6 c-63
-9 -75 -2 -75 44 l0 39 -60 0 -60 0 0 40 c0 38 -2 40 -30 40 -28 0 -30 -2 -30
-40 l0 -40 -90 0 -90 0 0 -44 c0 -41 -2 -43 -27 -42 -26 1 -28 5 -31 44 -2 26
-8 42 -15 41 -40 -5 -47 1 -47 41 0 38 -2 40 -30 40 l-30 0 0 -80 0 -80 60 0
60 0 0 -40 0 -40 -90 0 -90 0 0 -40 c0 -38 -2 -40 -30 -40 -28 0 -30 2 -30 40
l0 40 -150 0 -150 0 0 -40 0 -40 -60 0 -60 0 0 -45 c0 -41 -2 -45 -22 -41 -13
3 -26 5 -30 5 -5 1 -8 19 -8 41 0 38 -2 40 -30 40 -28 0 -30 -2 -30 -40 l0
-40 -60 0 -60 0 0 80 0 80 -30 0 c-28 0 -30 -2 -30 -40 l0 -40 -60 0 -60 0 0
40 c0 38 2 40 30 40 28 0 30 2 30 40 0 38 -2 40 -30 40 l-30 0 0 80 0 80 -30
0 -30 0 0 -80 0 -80 -30 0 -30 0 0 80 0 80 -30 0 c-16 0 -30 -4 -30 -8 0 -5
-25 -4 -56 2 -36 6 -58 6 -62 0 -4 -5 -15 -10 -24 -11 -10 0 -22 -1 -28 -2 -5
0 -10 -14 -10 -31 l0 -30 -60 0 -60 0 0 80 0 80 -30 0 -30 0 0 80 0 80 -30 0
-30 0 0 -80 0 -80 30 0 30 0 0 -80 0 -80 30 0 30 0 0 -120 0 -120 -30 0 -30 0
0 -200 0 -200 -30 0 -30 0 0 -120 0 -120 60 0 60 0 0 -40 0 -40 60 0 60 0 0
-40 c0 -38 2 -40 30 -40 28 0 30 -2 30 -40 0 -38 2 -40 30 -40 l30 0 0 -80 0
-80 -90 0 -90 0 0 -40 0 -40 -180 0 -180 0 0 40 0 40 -60 0 -60 0 0 40 c0 38
-2 40 -30 40 -28 0 -30 2 -30 40 0 38 2 40 30 40 28 0 30 2 30 40 0 38 -2 40
-30 40 -28 0 -30 2 -30 40 0 38 -2 40 -30 40 -28 0 -30 2 -30 40 l0 40 -60 0
-60 0 0 40 c0 38 2 40 30 40 28 0 30 2 30 40 l0 40 -60 0 -60 0 0 40 0 40 -60
0 -60 0 0 160 0 160 -30 0 c-28 0 -30 2 -30 40 0 38 -2 40 -30 40 l-30 0 0
320 0 320 30 0 c28 0 30 2 30 40 l0 40 90 0 90 0 0 40 0 40 90 0 90 0 0 40 0
40 120 0 120 0 0 -40 0 -40 60 0 60 0 0 40 c0 38 -2 40 -30 40 -28 0 -30 2
-30 40 0 38 2 40 30 40 28 0 30 2 30 40 l0 40 -60 0 -60 0 0 40 0 40 -270 0
-270 0 0 -40z m1080 -880 c0 -38 -2 -40 -30 -40 -28 0 -30 2 -30 40 0 38 2 40
30 40 28 0 30 -2 30 -40z m900 -240 l0 -40 -60 0 -60 0 0 40 0 40 60 0 60 0 0
-40z m-480 -80 l0 -40 -60 0 -60 0 0 40 0 40 60 0 60 0 0 -40z m900 0 l0 -40
-60 0 -60 0 0 40 0 40 60 0 60 0 0 -40z m300 -40 l0 -80 30 0 c28 0 30 -2 30
-40 l0 -40 -90 0 -90 0 0 40 c0 38 -2 40 -30 40 -28 0 -30 2 -30 40 0 38 2 40
30 40 28 0 30 -2 30 -40 0 -38 2 -40 30 -40 l30 0 0 80 0 80 30 0 30 0 0 -80z
m180 40 c0 -38 -2 -40 -30 -40 -28 0 -30 2 -30 40 0 38 2 40 30 40 28 0 30 -2
30 -40z m-1380 -160 l0 -40 90 0 90 0 0 40 0 40 60 0 60 0 0 -40 c0 -38 2 -40
30 -40 28 0 30 -2 30 -40 0 -38 2 -40 30 -40 28 0 30 -2 30 -40 l0 -40 120 0
120 0 0 40 c0 38 2 40 30 40 28 0 30 2 30 40 0 38 2 40 30 40 28 0 30 2 30 40
l0 40 60 0 60 0 0 -40 c0 -38 -2 -40 -30 -40 -28 0 -30 -2 -30 -40 l0 -40 -60
0 -60 0 0 -40 c0 -38 -2 -40 -30 -40 -28 0 -30 -2 -30 -40 l0 -40 60 0 60 0 0
-40 c0 -38 2 -40 30 -40 l30 0 0 -80 0 -80 30 0 30 0 0 80 0 80 30 0 c28 0 30
-2 30 -40 l0 -40 120 0 120 0 0 -40 c0 -38 -2 -40 -30 -40 -28 0 -30 -2 -30
-40 l0 -40 -60 0 -60 0 0 -40 c0 -38 2 -40 30 -40 28 0 30 -2 30 -40 l0 -40
-90 0 -90 0 0 40 c0 38 -2 40 -30 40 -28 0 -30 2 -30 40 0 38 -2 40 -30 40
-28 0 -30 -2 -30 -40 l0 -40 -60 0 -60 0 0 40 c0 38 -2 40 -30 40 -28 0 -30 2
-30 40 l0 40 -90 0 -90 0 0 40 0 40 -60 0 -60 0 0 -40 c0 -38 -2 -40 -30 -40
l-30 0 0 -80 0 -80 -30 0 -30 0 0 80 0 80 30 0 c28 0 30 2 30 40 0 38 -2 40
-30 40 l-30 0 0 80 0 80 -30 0 c-28 0 -30 2 -30 40 0 38 -2 40 -30 40 l-30 0
0 -120 0 -120 30 0 30 0 0 -160 0 -160 30 0 c28 0 30 -2 30 -40 0 -38 -2 -40
-30 -40 l-30 0 0 -120 0 -120 30 0 c28 0 30 2 30 40 0 38 2 40 30 40 l30 0 0
-80 0 -80 30 0 c28 0 30 -2 30 -40 0 -38 2 -40 30 -40 l30 0 0 -120 0 -120
-30 0 c-28 0 -30 -2 -30 -40 0 -38 -2 -40 -30 -40 -28 0 -30 -2 -30 -40 0 -38
-2 -40 -30 -40 -28 0 -30 -2 -30 -40 0 -38 -2 -40 -30 -40 -28 0 -30 -2 -30
-40 0 -38 -2 -40 -30 -40 -28 0 -30 -2 -30 -40 0 -38 -2 -40 -30 -40 -28 0
-30 -2 -30 -40 l0 -40 -60 0 -60 0 0 -80 0 -80 -30 0 c-28 0 -30 2 -30 40 0
38 -2 40 -30 40 -28 0 -30 -2 -30 -40 0 -38 -2 -40 -30 -40 -28 0 -30 -2 -30
-40 l0 -40 -90 0 -90 0 0 80 0 80 -30 0 c-28 0 -30 -2 -30 -40 0 -38 -2 -40
-30 -40 -28 0 -30 2 -30 40 0 38 2 40 30 40 28 0 30 2 30 40 0 38 2 40 30 40
28 0 30 2 30 40 l0 40 60 0 60 0 0 40 c0 38 2 40 30 40 l30 0 0 -80 0 -80 60
0 60 0 0 40 c0 38 2 40 30 40 28 0 30 2 30 40 l0 40 90 0 90 0 0 40 c0 38 -2
40 -30 40 -28 0 -30 2 -30 40 l0 40 60 0 60 0 0 40 0 40 -150 0 -150 0 0 40
c0 38 -2 40 -30 40 -28 0 -30 2 -30 40 l0 40 -90 0 -90 0 0 40 c0 38 -2 40
-30 40 l-30 0 0 80 0 80 30 0 c28 0 30 2 30 40 l0 40 60 0 60 0 0 80 0 80 30
0 c28 0 30 2 30 40 0 38 -2 40 -30 40 -28 0 -30 2 -30 40 0 38 2 40 30 40 l30
0 0 80 0 80 -60 0 -60 0 0 120 0 120 30 0 c28 0 30 -2 30 -40 0 -38 2 -40 30
-40 28 0 30 -2 30 -40 0 -38 2 -40 30 -40 l30 0 0 -80 0 -80 30 0 c28 0 30 -2
30 -40 l0 -40 60 0 60 0 0 -40 0 -40 60 0 60 0 0 40 c0 38 -2 40 -30 40 -28 0
-30 2 -30 40 0 38 -2 40 -30 40 l-30 0 0 80 0 80 -30 0 c-28 0 -30 2 -30 40 0
38 2 40 30 40 l30 0 0 160 0 160 -30 0 c-28 0 -30 -2 -30 -40 0 -38 -2 -40
-30 -40 -28 0 -30 -2 -30 -40 0 -38 -2 -40 -30 -40 -28 0 -30 2 -30 40 0 38
-2 40 -30 40 -28 0 -30 2 -30 40 l0 40 60 0 60 0 0 40 c0 38 2 40 30 40 28 0
30 2 30 40 0 38 2 40 30 40 28 0 30 -2 30 -40z m1200 -160 l0 -40 -60 0 -60 0
0 -40 c0 -38 -2 -40 -30 -40 -28 0 -30 2 -30 40 0 38 2 40 30 40 28 0 30 2 30
40 l0 40 60 0 60 0 0 -40z m-2340 -400 c0 -38 -2 -40 -30 -40 -28 0 -30 2 -30
40 0 38 2 40 30 40 28 0 30 -2 30 -40z m-180 -80 c0 -38 2 -40 30 -40 28 0 30
-2 30 -40 0 -38 2 -40 30 -40 l30 0 0 -80 0 -80 60 0 60 0 0 -40 0 -40 -60 0
-60 0 0 40 c0 38 -2 40 -30 40 l-30 0 0 80 0 80 -30 0 c-28 0 -30 -2 -30 -40
0 -38 -2 -40 -30 -40 -28 0 -30 2 -30 40 0 38 2 40 30 40 28 0 30 2 30 40 0
38 -2 40 -30 40 -28 0 -30 2 -30 40 0 38 2 40 30 40 28 0 30 -2 30 -40z m2640
-160 c0 -38 -2 -40 -30 -40 -28 0 -30 2 -30 40 0 38 2 40 30 40 28 0 30 -2 30
-40z m-1740 -80 c0 -38 2 -40 30 -40 28 0 30 -2 30 -40 0 -38 -2 -40 -30 -40
-28 0 -30 2 -30 40 l0 40 -60 0 -60 0 0 40 0 40 60 0 60 0 0 -40z m-300 -80
c0 -38 2 -40 30 -40 l30 0 0 -80 0 -80 -90 0 -90 0 0 40 0 40 60 0 60 0 0 40
0 40 -60 0 -60 0 0 40 0 40 60 0 60 0 0 -40z m-180 -80 l0 -40 -60 0 -60 0 0
40 0 40 60 0 60 0 0 -40z m420 0 l0 -40 -60 0 -60 0 0 40 0 40 60 0 60 0 0
-40z m-720 -80 c0 -38 -2 -40 -30 -40 -28 0 -30 2 -30 40 0 38 2 40 30 40 28
0 30 -2 30 -40z m-600 -120 l0 -80 -30 0 c-28 0 -30 2 -30 40 0 38 -2 40 -30
40 l-30 0 0 -80 0 -80 -30 0 c-28 0 -30 -2 -30 -40 0 -38 2 -40 30 -40 l30 0
0 -120 0 -120 -60 0 -60 0 0 -80 0 -80 -30 0 -30 0 0 80 0 80 -30 0 -30 0 0
-80 0 -80 -30 0 c-28 0 -30 -2 -30 -40 l0 -40 90 0 90 0 0 -40 0 -40 -60 0
-60 0 0 -40 0 -40 -60 0 -60 0 0 40 0 40 -60 0 -60 0 0 -40 c0 -38 -2 -40 -30
-40 -28 0 -30 2 -30 40 0 38 2 40 30 40 28 0 30 2 30 40 l0 40 60 0 60 0 0 80
0 80 30 0 c28 0 30 2 30 40 0 38 2 40 30 40 28 0 30 2 30 40 0 38 -2 40 -30
40 -28 0 -30 2 -30 40 l0 40 60 0 60 0 0 40 c0 38 -2 40 -30 40 -28 0 -30 2
-30 40 0 38 2 40 30 40 28 0 30 -2 30 -40 0 -38 2 -40 30 -40 28 0 30 2 30 40
0 38 2 40 30 40 l30 0 0 80 0 80 30 0 c28 0 30 2 30 40 l0 40 60 0 60 0 0 -80z
m840 40 l0 -40 60 0 60 0 0 -40 0 -40 90 0 90 0 0 -40 0 -40 90 0 90 0 0 -40
c0 -38 2 -40 30 -40 28 0 30 -2 30 -40 0 -38 -2 -40 -30 -40 -28 0 -30 2 -30
40 l0 40 -90 0 -90 0 0 40 0 40 -90 0 -90 0 0 40 0 40 -60 0 -60 0 0 40 c0 38
-2 40 -30 40 -28 0 -30 -2 -30 -40 0 -38 -2 -40 -30 -40 -28 0 -30 -2 -30 -40
l0 -40 60 0 60 0 0 -40 c0 -38 2 -40 30 -40 28 0 30 -2 30 -40 0 -38 -2 -40
-30 -40 -28 0 -30 2 -30 40 l0 40 -60 0 -60 0 0 40 c0 38 -2 40 -30 40 -28 0
-30 2 -30 40 0 38 -2 40 -30 40 -28 0 -30 2 -30 40 l0 40 60 0 60 0 0 40 0 40
60 0 60 0 0 -40z m-840 -320 c0 -38 -2 -40 -30 -40 -28 0 -30 2 -30 40 0 38 2
40 30 40 28 0 30 -2 30 -40z m1500 0 c0 -38 -2 -40 -30 -40 -28 0 -30 2 -30
40 0 38 2 40 30 40 28 0 30 -2 30 -40z m-1980 -160 c0 -38 -2 -40 -30 -40 -28
0 -30 2 -30 40 0 38 2 40 30 40 28 0 30 -2 30 -40z m-120 -120 l0 -80 -30 0
-30 0 0 80 0 80 30 0 30 0 0 -80z m1380 -40 c0 -38 -2 -40 -30 -40 -28 0 -30
2 -30 40 0 38 2 40 30 40 28 0 30 -2 30 -40z m-120 -80 c0 -38 -2 -40 -30 -40
-28 0 -30 2 -30 40 0 38 2 40 30 40 28 0 30 -2 30 -40z m360 -40 l0 -80 -30 0
c-28 0 -30 2 -30 40 0 38 -2 40 -30 40 -28 0 -30 -2 -30 -40 0 -38 -2 -40 -30
-40 -28 0 -30 2 -30 40 0 38 2 40 30 40 28 0 30 2 30 40 l0 40 60 0 60 0 0
-80z m240 -440 l0 -40 90 0 90 0 0 -40 0 -40 -90 0 -90 0 0 40 0 40 -60 0 -60
0 0 40 0 40 60 0 60 0 0 -40z m480 -160 l0 -40 -90 0 -90 0 0 -40 0 -40 -60 0
-60 0 0 40 c0 38 2 40 30 40 28 0 30 2 30 40 l0 40 120 0 120 0 0 -40z m240
-120 l0 -80 -60 0 -60 0 0 40 c0 38 -2 40 -30 40 -28 0 -30 2 -30 40 l0 40 90
0 90 0 0 -80z m-1020 -40 c0 -38 -2 -40 -30 -40 -28 0 -30 2 -30 40 0 38 2 40
30 40 28 0 30 -2 30 -40z"/>
<path d="M4260 2320 c0 -38 2 -40 30 -40 28 0 30 2 30 40 0 38 -2 40 -30 40
-28 0 -30 -2 -30 -40z"/>
<path d="M3120 2160 c0 -38 2 -40 30 -40 28 0 30 2 30 40 0 38 -2 40 -30 40
-28 0 -30 -2 -30 -40z"/>
<path d="M3240 2000 c0 -38 2 -40 30 -40 28 0 30 2 30 40 0 38 -2 40 -30 40
-28 0 -30 -2 -30 -40z"/>
<path d="M3180 1520 c0 -38 2 -40 30 -40 28 0 30 2 30 40 0 38 -2 40 -30 40
-28 0 -30 -2 -30 -40z"/>
<path d="M3540 1520 c0 -38 2 -40 30 -40 28 0 30 2 30 40 0 38 -2 40 -30 40
-28 0 -30 -2 -30 -40z"/>
<path d="M2940 960 l0 -40 60 0 60 0 0 40 0 40 -60 0 -60 0 0 -40z"/>
<path d="M1260 1280 c0 -38 2 -40 30 -40 28 0 30 2 30 40 0 38 -2 40 -30 40
-28 0 -30 -2 -30 -40z"/>
<path d="M1080 960 c0 -38 2 -40 30 -40 28 0 30 2 30 40 0 38 -2 40 -30 40
-28 0 -30 -2 -30 -40z"/>
<path d="M2535 4022 c-6 -4 -12 -37 -13 -74 l-3 -68 31 0 c28 0 30 2 30 40 0
22 -3 40 -8 40 -4 0 -7 14 -7 32 0 32 -12 44 -30 30z"/>
<path d="M2700 3682 c0 -24 30 -38 42 -20 12 19 4 33 -20 36 -16 3 -22 -2 -22
-16z"/>
<path d="M2400 3600 c0 -38 2 -40 30 -40 28 0 30 -2 30 -40 l0 -40 60 0 60 0
0 40 0 40 -60 0 -60 0 0 40 c0 38 -2 40 -30 40 -28 0 -30 -2 -30 -40z"/>
<path d="M1860 3520 c0 -38 -2 -40 -30 -40 -28 0 -30 -2 -30 -40 0 -38 2 -40
30 -40 28 0 30 2 30 40 l0 40 90 0 90 0 0 40 0 40 -90 0 -90 0 0 -40z"/>
<path d="M3780 3518 l0 -38 120 0 120 0 0 38 0 37 -120 0 -120 0 0 -37z"/>
<path d="M1080 2960 l0 -40 60 0 60 0 0 40 0 40 -60 0 -60 0 0 -40z"/>
<path d="M2280 2960 c0 -38 2 -40 30 -40 28 0 30 2 30 40 0 38 -2 40 -30 40
-28 0 -30 -2 -30 -40z"/>
<path d="M900 2880 c0 -38 2 -40 30 -40 28 0 30 2 30 40 0 38 -2 40 -30 40
-28 0 -30 -2 -30 -40z"/>
<path d="M4740 2480 c0 -38 -2 -40 -30 -40 -28 0 -30 -2 -30 -40 l0 -40 60 0
60 0 0 80 0 80 -30 0 c-28 0 -30 -2 -30 -40z"/>
<path d="M3360 720 c0 -38 2 -40 30 -40 28 0 30 -2 30 -40 l0 -40 60 0 60 0 0
40 0 40 -60 0 -60 0 0 40 c0 38 -2 40 -30 40 -28 0 -30 -2 -30 -40z"/>
<path d="M3720 560 l0 -40 60 0 60 0 0 40 0 40 -60 0 -60 0 0 -40z"/>
<path d="M3840 400 c0 -38 2 -40 30 -40 28 0 30 2 30 40 0 38 -2 40 -30 40
-28 0 -30 -2 -30 -40z"/>
</g>
</svg>
